<svg xmlns="http://www.w3.org/2000/svg" viewBox="0 0 568 226" width="568" height="226" role="img" aria-label="Hospital-Management-System — Java Swing + MySQL Hospital Management System with full CRUD operations and GUI RECORD ACCURATE">
<defs><linearGradient id="bg" x1="0" y1="0" x2="0" y2="1">
    <stop offset="0" stop-color="#101728"/><stop offset="0.5" stop-color="#0B0F1A"/><stop offset="1" stop-color="#080B14"/>
  </linearGradient></defs><rect width="568" height="226" fill="url(#bg)"/>
     <rect x="0.5" y="0.5" width="567" height="225" fill="none" stroke="#1E2433"/>
     <rect x="0" y="0" width="3" height="226" fill="#6CACD8"/>
     <text x="26" y="44" font-family='"SFMono-Regular", Consolas, "Liberation Mono", Menlo, monospace' font-size="17" fill="#EDEFF5" letter-spacing="1.6" >Hospital-Management-System</text>
     <text x="26" y="68" font-family='"SFMono-Regular", Consolas, "Liberation Mono", Menlo, monospace' font-size="11" fill="#7E8598" letter-spacing="1.6" >JAVA SWING + MYSQL HOSPITAL MANAGEMENT SYSTEM WITH FULL CR</text>
     <text x="542" y="44" font-family='"SFMono-Regular", Consolas, "Liberation Mono", Menlo, monospace' font-size="11.5" fill="#6CACD8" letter-spacing="2.2" text-anchor="end">RECORD ACCURATE</text>

     <g opacity="0.9"><circle cx="26" cy="128" r="2.6" fill="#F0A93B"/><circle cx="35" cy="128" r="2.6" fill="#F0A93B"/><circle cx="44" cy="128" r="2.6" fill="#F0A93B"/><circle cx="53" cy="128" r="2.6" fill="#F0A93B"/><circle cx="62" cy="128" r="2.6" fill="#F0A93B"/><circle cx="71" cy="128" r="2.6" fill="#F0A93B"/><circle cx="80" cy="128" r="2.6" fill="#F0A93B"/><circle cx="89" cy="128" r="2.6" fill="#F0A93B"/><circle cx="98" cy="128" r="2.6" fill="#F0A93B"/><circle cx="107" cy="128" r="2.6" fill="#F0A93B"/><circle cx="116" cy="128" r="2.6" fill="#F0A93B"/></g>
     <line x1="26" y1="178" x2="542" y2="178" stroke="#6CACD8" stroke-opacity="0.35" stroke-width="1.4"/>
     <line x1="26" y1="128" x2="116" y2="128" stroke="#F0A93B" stroke-opacity="0.3" stroke-width="1.4"/>

     <g stroke="#3E6A8A" stroke-width="1.2" stroke-opacity="0.55">
            <line x1="26" y1="128" x2="26" y2="178"/><line x1="110.33333333333333" y1="128" x2="110.33333333333333" y2="178"/><line x1="194.66666666666666" y1="128" x2="194.66666666666666" y2="178"/><line x1="279" y1="128" x2="279" y2="178"/><line x1="363.3333333333333" y1="128" x2="363.3333333333333" y2="178"/><line x1="447.66666666666663" y1="128" x2="447.66666666666663" y2="178"/><line x1="532" y1="128" x2="532" y2="178"/>
          </g>

     <rect x="26" y="186" width="514" height="6" fill="#c2aa72" rx="1">
        <animate attributeName="width" values="0;0;514" keyTimes="0;0.1818;1" dur="1.1s" begin="0s" fill="freeze" calcMode="spline" keySplines="0 0 1 1;0.3 0 0.2 1"/>
      </rect>
     <text x="26" y="210" font-family='"SFMono-Regular", Consolas, "Liberation Mono", Menlo, monospace' font-size="10.5" fill="#4E586E" letter-spacing="2" >11 COMMITS · JAVA</text>
     <text x="542" y="210" font-family='"SFMono-Regular", Consolas, "Liberation Mono", Menlo, monospace' font-size="10.5" fill="#4E586E" letter-spacing="2" text-anchor="end">PUSHED 2026-05</text>
</svg>
