<svg xmlns="http://www.w3.org/2000/svg" viewBox="0 0 700 230" width="700" height="230" role="img" aria-label="Signal: recent public activity, regenerated automatically. Last recount 2026-10-05.">
<defs><linearGradient id="bg" x1="0" y1="0" x2="0" y2="1">
    <stop offset="0" stop-color="#101728"/><stop offset="0.5" stop-color="#0B0F1A"/><stop offset="1" stop-color="#080B14"/>
  </linearGradient></defs><rect width="700" height="230" fill="url(#bg)"/>
     <defs>
       <linearGradient id="sig" gradientUnits="userSpaceOnUse" x1="44" y1="0" x2="656" y2="0">
         <stop offset="0" stop-color="#6CACD8" stop-opacity="0.25"/>
         <stop offset="0.7" stop-color="#F0A93B" stop-opacity="0.9"/>
         <stop offset="1" stop-color="#FF3B21"/>
       </linearGradient>
     </defs>
     <text x="44" y="56" font-family='"SFMono-Regular", Consolas, "Liberation Mono", Menlo, monospace' font-size="15" fill="#F0A93B" letter-spacing="3.4" >SIGNAL</text>
     <text x="656" y="56" font-family='"SFMono-Regular", Consolas, "Liberation Mono", Menlo, monospace' font-size="12" fill="#4E586E" letter-spacing="2.2" text-anchor="end">RECOUNTED 2026-10-05</text>
     <path d="M 44.0 119.1 L 57.6 165.0 L 71.2 165.0 L 84.8 165.0 L 98.4 165.0 L 112.0 165.0 L 125.6 165.0 L 139.2 165.0 L 152.8 165.0 L 166.4 165.0 L 180.0 165.0 L 193.6 165.0 L 207.2 165.0 L 220.8 165.0 L 234.4 165.0 L 248.0 165.0 L 261.6 165.0 L 275.2 165.0 L 288.8 165.0 L 302.4 165.0 L 316.0 165.0 L 329.6 165.0 L 343.2 165.0 L 356.8 165.0 L 370.4 165.0 L 384.0 165.0 L 397.6 165.0 L 411.2 165.0 L 424.8 165.0 L 438.4 165.0 L 452.0 165.0 L 465.6 165.0 L 479.2 165.0 L 492.8 165.0 L 506.4 165.0 L 520.0 165.0 L 533.6 165.0 L 547.2 165.0 L 560.8 165.0 L 574.4 165.0 L 588.0 111.0 L 601.6 165.0 L 615.2 165.0 L 628.8 165.0 L 642.4 165.0 L 656.0 165.0" fill="none" stroke="url(#sig)" stroke-width="2.2" stroke-linejoin="round"
           stroke-dasharray="2000" stroke-dashoffset="0">
       <animate attributeName="stroke-dashoffset" values="2000;2000;0" keyTimes="0;0.0833;1" dur="2.4000000000000004s" begin="0s" fill="freeze" calcMode="spline" keySplines="0 0 1 1;0.3 0 0.2 1"/>
     </path>
     <circle r="4" fill="#FF3B21" cx="656" cy="165">
       <animate attributeName="r" values="4;7;4" dur="2.4s" repeatCount="indefinite"/>
     </circle>
     <circle r="10" fill="none" stroke="#FF3B21" stroke-width="1" cx="656" cy="165">
       <animate attributeName="r" values="8;20;8" dur="2.4s" repeatCount="indefinite"/>
       <animate attributeName="stroke-opacity" values="0.6;0;0.6" dur="2.4s" repeatCount="indefinite"/>
     </circle>
     <line x1="44" y1="189" x2="656" y2="189" stroke="#1E2433"/>
     <text x="44" y="217" font-family='"SFMono-Regular", Consolas, "Liberation Mono", Menlo, monospace' font-size="12" fill="#4E586E" letter-spacing="2.2" >THE RECORD IS CURRENT</text>
</svg>
